<mxfile host="app.diagrams.net" modified="2023-10-23T15:41:50.797Z" agent="Mozilla/5.0 (Windows NT 10.0; Win64; x64) AppleWebKit/537.36 (KHTML, like Gecko) Chrome/118.0.0.0 Safari/537.36" etag="9T0_QIfkf4cLI5aoP4v-" version="22.0.6" type="device">
  <diagram name="Page-1" id="tgTNKqO9q2sYpVFo-8EE">
    <mxGraphModel dx="792" dy="1096" grid="1" gridSize="10" guides="1" tooltips="1" connect="1" arrows="1" fold="1" page="1" pageScale="1" pageWidth="850" pageHeight="1100" math="0" shadow="0">
      <root>
        <mxCell id="0" />
        <mxCell id="1" parent="0" />
        <mxCell id="TTHdz9MiycEcP2NvDhaE-1" value="Home Page&lt;br&gt;index.html&lt;br&gt;" style="rounded=0;whiteSpace=wrap;html=1;" parent="1" vertex="1">
          <mxGeometry x="40" y="80" width="120" height="60" as="geometry" />
        </mxCell>
        <mxCell id="TTHdz9MiycEcP2NvDhaE-3" value="Project&lt;br&gt;(name of project).html" style="rounded=0;whiteSpace=wrap;html=1;" parent="1" vertex="1">
          <mxGeometry x="240" y="80" width="120" height="60" as="geometry" />
        </mxCell>
        <mxCell id="TTHdz9MiycEcP2NvDhaE-5" value="Header&lt;br&gt;(Picture of me, Name, and links to resume, github, linkedin&amp;nbsp;" style="rounded=0;whiteSpace=wrap;html=1;" parent="1" vertex="1">
          <mxGeometry x="80" y="160" width="80" height="120" as="geometry" />
        </mxCell>
        <mxCell id="PHvvMpnkXKXHnE8ItIG_-8" value="Bio&lt;br&gt;(Information about myself and what I&#39;m doing)" style="rounded=0;whiteSpace=wrap;html=1;" vertex="1" parent="1">
          <mxGeometry x="80" y="320" width="80" height="120" as="geometry" />
        </mxCell>
        <mxCell id="PHvvMpnkXKXHnE8ItIG_-9" value="Classes taken&lt;br&gt;(List of courses with links to the ucsd website for each course)" style="rounded=0;whiteSpace=wrap;html=1;" vertex="1" parent="1">
          <mxGeometry x="80" y="480" width="80" height="120" as="geometry" />
        </mxCell>
        <mxCell id="PHvvMpnkXKXHnE8ItIG_-10" value="Projects&lt;br&gt;(Picture of and a short blurb about each project)" style="rounded=0;whiteSpace=wrap;html=1;" vertex="1" parent="1">
          <mxGeometry x="80" y="640" width="80" height="120" as="geometry" />
        </mxCell>
        <mxCell id="PHvvMpnkXKXHnE8ItIG_-11" value="Footer&lt;br&gt;(Copyright information and my email)" style="rounded=0;whiteSpace=wrap;html=1;" vertex="1" parent="1">
          <mxGeometry x="80" y="800" width="80" height="120" as="geometry" />
        </mxCell>
        <mxCell id="PHvvMpnkXKXHnE8ItIG_-12" value="Header&lt;br&gt;(Name of project, short blurb about the project with any necessary links)" style="rounded=0;whiteSpace=wrap;html=1;" vertex="1" parent="1">
          <mxGeometry x="280" y="160" width="80" height="120" as="geometry" />
        </mxCell>
        <mxCell id="PHvvMpnkXKXHnE8ItIG_-13" value="Information&lt;br&gt;(Pictures and a more detailed description of the project and what was done)" style="rounded=0;whiteSpace=wrap;html=1;" vertex="1" parent="1">
          <mxGeometry x="280" y="320" width="80" height="120" as="geometry" />
        </mxCell>
        <mxCell id="PHvvMpnkXKXHnE8ItIG_-14" value="Footer&lt;br&gt;(Copyright information and my email)" style="rounded=0;whiteSpace=wrap;html=1;" vertex="1" parent="1">
          <mxGeometry x="280" y="480" width="80" height="120" as="geometry" />
        </mxCell>
      </root>
    </mxGraphModel>
  </diagram>
</mxfile>
